<mxfile host="app.diagrams.net" modified="2024-05-01T09:25:09.716Z" agent="Mozilla/5.0 (Windows NT 10.0; Win64; x64) AppleWebKit/537.36 (KHTML, like Gecko) Chrome/124.0.0.0 Safari/537.36 Edg/124.0.0.0" etag="grkErtwaCs8Ny1LEU2ji" version="24.3.0" type="device">
  <diagram name="Page-1" id="Lk5pecSDAse025XjmUEO">
    <mxGraphModel dx="1626" dy="793" grid="1" gridSize="10" guides="1" tooltips="1" connect="1" arrows="1" fold="1" page="1" pageScale="1" pageWidth="827" pageHeight="1169" math="0" shadow="0">
      <root>
        <mxCell id="0" />
        <mxCell id="1" parent="0" />
        <mxCell id="D4OleUSTHo1VSGi5dYCB-1" value="MusicSort" style="swimlane;whiteSpace=wrap;html=1;" vertex="1" parent="1">
          <mxGeometry x="170" y="10" width="760" height="1430" as="geometry" />
        </mxCell>
        <mxCell id="D4OleUSTHo1VSGi5dYCB-5" value="Choisir un dossier" style="ellipse;whiteSpace=wrap;html=1;" vertex="1" parent="D4OleUSTHo1VSGi5dYCB-1">
          <mxGeometry x="20" y="30" width="140" height="70" as="geometry" />
        </mxCell>
        <mxCell id="D4OleUSTHo1VSGi5dYCB-6" value="Afficher les fichiers musique du dossier" style="ellipse;whiteSpace=wrap;html=1;" vertex="1" parent="D4OleUSTHo1VSGi5dYCB-1">
          <mxGeometry x="280" y="30" width="140" height="70" as="geometry" />
        </mxCell>
        <mxCell id="D4OleUSTHo1VSGi5dYCB-7" value="Extends" style="endArrow=block;endSize=16;endFill=0;html=1;rounded=0;" edge="1" parent="D4OleUSTHo1VSGi5dYCB-1" source="D4OleUSTHo1VSGi5dYCB-6" target="D4OleUSTHo1VSGi5dYCB-5">
          <mxGeometry width="160" relative="1" as="geometry">
            <mxPoint x="220" y="240" as="sourcePoint" />
            <mxPoint x="380" y="240" as="targetPoint" />
          </mxGeometry>
        </mxCell>
        <mxCell id="D4OleUSTHo1VSGi5dYCB-12" value="Choisir un fichier pour la playlist" style="ellipse;whiteSpace=wrap;html=1;" vertex="1" parent="D4OleUSTHo1VSGi5dYCB-1">
          <mxGeometry x="457" y="180" width="140" height="70" as="geometry" />
        </mxCell>
        <mxCell id="D4OleUSTHo1VSGi5dYCB-39" value="Appliquer les changements" style="ellipse;whiteSpace=wrap;html=1;" vertex="1" parent="D4OleUSTHo1VSGi5dYCB-1">
          <mxGeometry x="250" y="110" width="140" height="70" as="geometry" />
        </mxCell>
        <mxCell id="D4OleUSTHo1VSGi5dYCB-41" value="Gérer le vrai fichier" style="ellipse;whiteSpace=wrap;html=1;" vertex="1" parent="D4OleUSTHo1VSGi5dYCB-1">
          <mxGeometry x="560" y="120" width="140" height="70" as="geometry" />
        </mxCell>
        <mxCell id="D4OleUSTHo1VSGi5dYCB-42" value="Extends" style="endArrow=block;endSize=16;endFill=0;html=1;rounded=0;" edge="1" parent="D4OleUSTHo1VSGi5dYCB-1" source="D4OleUSTHo1VSGi5dYCB-41" target="D4OleUSTHo1VSGi5dYCB-39">
          <mxGeometry width="160" relative="1" as="geometry">
            <mxPoint x="240" y="740" as="sourcePoint" />
            <mxPoint x="400" y="740" as="targetPoint" />
          </mxGeometry>
        </mxCell>
        <mxCell id="D4OleUSTHo1VSGi5dYCB-26" value="Sortir un fichier de la playlist" style="ellipse;whiteSpace=wrap;html=1;" vertex="1" parent="D4OleUSTHo1VSGi5dYCB-1">
          <mxGeometry x="460" y="340" width="140" height="70" as="geometry" />
        </mxCell>
        <mxCell id="D4OleUSTHo1VSGi5dYCB-69" value="Choisir un dossier&lt;div&gt;cible&lt;/div&gt;" style="ellipse;whiteSpace=wrap;html=1;" vertex="1" parent="D4OleUSTHo1VSGi5dYCB-1">
          <mxGeometry x="70" y="100" width="140" height="70" as="geometry" />
        </mxCell>
        <mxCell id="D4OleUSTHo1VSGi5dYCB-10" value="Renommer le fichier" style="ellipse;whiteSpace=wrap;html=1;" vertex="1" parent="D4OleUSTHo1VSGi5dYCB-1">
          <mxGeometry x="440" y="500" width="140" height="70" as="geometry" />
        </mxCell>
        <mxCell id="D4OleUSTHo1VSGi5dYCB-11" value="Annuler les changements du fichier" style="ellipse;whiteSpace=wrap;html=1;" vertex="1" parent="D4OleUSTHo1VSGi5dYCB-1">
          <mxGeometry x="220" y="1090" width="140" height="70" as="geometry" />
        </mxCell>
        <mxCell id="D4OleUSTHo1VSGi5dYCB-13" value="Placer le fichier en dessus" style="ellipse;whiteSpace=wrap;html=1;" vertex="1" parent="D4OleUSTHo1VSGi5dYCB-1">
          <mxGeometry x="360" y="680" width="140" height="70" as="geometry" />
        </mxCell>
        <mxCell id="D4OleUSTHo1VSGi5dYCB-29" value="Lancer la lecture d&#39;un fichier" style="ellipse;whiteSpace=wrap;html=1;" vertex="1" parent="D4OleUSTHo1VSGi5dYCB-1">
          <mxGeometry x="317" y="1340" width="140" height="70" as="geometry" />
        </mxCell>
        <mxCell id="D4OleUSTHo1VSGi5dYCB-33" value="Extends" style="endArrow=block;endSize=16;endFill=0;html=1;rounded=0;" edge="1" parent="D4OleUSTHo1VSGi5dYCB-1" source="D4OleUSTHo1VSGi5dYCB-29" target="D4OleUSTHo1VSGi5dYCB-31">
          <mxGeometry width="160" relative="1" as="geometry">
            <mxPoint x="340" y="1010" as="sourcePoint" />
            <mxPoint x="500" y="1010" as="targetPoint" />
          </mxGeometry>
        </mxCell>
        <mxCell id="D4OleUSTHo1VSGi5dYCB-34" value="Gérer le lecteur de musique" style="ellipse;whiteSpace=wrap;html=1;" vertex="1" parent="D4OleUSTHo1VSGi5dYCB-1">
          <mxGeometry x="560" y="1260" width="140" height="70" as="geometry" />
        </mxCell>
        <mxCell id="D4OleUSTHo1VSGi5dYCB-35" value="Extends" style="endArrow=block;endSize=16;endFill=0;html=1;rounded=0;" edge="1" parent="D4OleUSTHo1VSGi5dYCB-1" source="D4OleUSTHo1VSGi5dYCB-34" target="D4OleUSTHo1VSGi5dYCB-29">
          <mxGeometry width="160" relative="1" as="geometry">
            <mxPoint x="324" y="936" as="sourcePoint" />
            <mxPoint x="226" y="974" as="targetPoint" />
          </mxGeometry>
        </mxCell>
        <mxCell id="D4OleUSTHo1VSGi5dYCB-36" value="Annuler tous les changements" style="ellipse;whiteSpace=wrap;html=1;" vertex="1" parent="D4OleUSTHo1VSGi5dYCB-1">
          <mxGeometry x="190" y="1240" width="140" height="70" as="geometry" />
        </mxCell>
        <mxCell id="D4OleUSTHo1VSGi5dYCB-38" value="Extends" style="endArrow=block;endSize=16;endFill=0;html=1;rounded=0;" edge="1" parent="D4OleUSTHo1VSGi5dYCB-1" source="D4OleUSTHo1VSGi5dYCB-11" target="D4OleUSTHo1VSGi5dYCB-36">
          <mxGeometry width="160" relative="1" as="geometry">
            <mxPoint x="330" y="840" as="sourcePoint" />
            <mxPoint x="490" y="840" as="targetPoint" />
          </mxGeometry>
        </mxCell>
        <mxCell id="D4OleUSTHo1VSGi5dYCB-46" value="Placer le fichier en dessous" style="ellipse;whiteSpace=wrap;html=1;" vertex="1" parent="D4OleUSTHo1VSGi5dYCB-1">
          <mxGeometry x="360" y="765" width="140" height="70" as="geometry" />
        </mxCell>
        <mxCell id="D4OleUSTHo1VSGi5dYCB-48" value="Trier les fichiers" style="ellipse;whiteSpace=wrap;html=1;" vertex="1" parent="D4OleUSTHo1VSGi5dYCB-1">
          <mxGeometry x="340" y="850" width="140" height="70" as="geometry" />
        </mxCell>
        <mxCell id="D4OleUSTHo1VSGi5dYCB-50" value="Changer le triage en ascendant" style="ellipse;whiteSpace=wrap;html=1;" vertex="1" parent="D4OleUSTHo1VSGi5dYCB-1">
          <mxGeometry x="310" y="930" width="140" height="70" as="geometry" />
        </mxCell>
        <mxCell id="D4OleUSTHo1VSGi5dYCB-51" value="Changer le triage en descendant" style="ellipse;whiteSpace=wrap;html=1;" vertex="1" parent="D4OleUSTHo1VSGi5dYCB-1">
          <mxGeometry x="260" y="1000" width="140" height="70" as="geometry" />
        </mxCell>
        <mxCell id="D4OleUSTHo1VSGi5dYCB-62" value="Ajouter des digits aux fichiers de la playlist" style="ellipse;whiteSpace=wrap;html=1;" vertex="1" parent="D4OleUSTHo1VSGi5dYCB-1">
          <mxGeometry x="290" y="490" width="140" height="70" as="geometry" />
        </mxCell>
        <mxCell id="D4OleUSTHo1VSGi5dYCB-67" value="Changer le mode de création de la playlist" style="ellipse;whiteSpace=wrap;html=1;" vertex="1" parent="D4OleUSTHo1VSGi5dYCB-1">
          <mxGeometry x="60" y="1110" width="140" height="60" as="geometry" />
        </mxCell>
        <mxCell id="D4OleUSTHo1VSGi5dYCB-43" value="Renommer les fichiers de la playlist" style="ellipse;whiteSpace=wrap;html=1;" vertex="1" parent="D4OleUSTHo1VSGi5dYCB-1">
          <mxGeometry x="330" y="580" width="140" height="70" as="geometry" />
        </mxCell>
        <mxCell id="D4OleUSTHo1VSGi5dYCB-31" value="Lancer la lecture automatique de la playlist" style="ellipse;whiteSpace=wrap;html=1;" vertex="1" parent="D4OleUSTHo1VSGi5dYCB-1">
          <mxGeometry x="20" y="1260" width="140" height="70" as="geometry" />
        </mxCell>
        <mxCell id="D4OleUSTHo1VSGi5dYCB-71" value="Choisir tous les fichiers pour la playlist" style="ellipse;whiteSpace=wrap;html=1;" vertex="1" parent="D4OleUSTHo1VSGi5dYCB-1">
          <mxGeometry x="220" y="230" width="140" height="70" as="geometry" />
        </mxCell>
        <mxCell id="D4OleUSTHo1VSGi5dYCB-72" value="Extends" style="endArrow=block;endSize=16;endFill=0;html=1;rounded=0;" edge="1" parent="D4OleUSTHo1VSGi5dYCB-1" source="D4OleUSTHo1VSGi5dYCB-12" target="D4OleUSTHo1VSGi5dYCB-71">
          <mxGeometry width="160" relative="1" as="geometry">
            <mxPoint x="570" y="163" as="sourcePoint" />
            <mxPoint x="400" y="157" as="targetPoint" />
          </mxGeometry>
        </mxCell>
        <mxCell id="D4OleUSTHo1VSGi5dYCB-74" value="Sortir tous les fichiers de la playlist" style="ellipse;whiteSpace=wrap;html=1;" vertex="1" parent="D4OleUSTHo1VSGi5dYCB-1">
          <mxGeometry x="200" y="330" width="140" height="70" as="geometry" />
        </mxCell>
        <mxCell id="D4OleUSTHo1VSGi5dYCB-75" value="Extends" style="endArrow=block;endSize=16;endFill=0;html=1;rounded=0;" edge="1" parent="D4OleUSTHo1VSGi5dYCB-1" source="D4OleUSTHo1VSGi5dYCB-26" target="D4OleUSTHo1VSGi5dYCB-74">
          <mxGeometry width="160" relative="1" as="geometry">
            <mxPoint x="413" y="235" as="sourcePoint" />
            <mxPoint x="357" y="255" as="targetPoint" />
          </mxGeometry>
        </mxCell>
        <mxCell id="D4OleUSTHo1VSGi5dYCB-2" value="Utilisateur" style="shape=umlActor;verticalLabelPosition=bottom;verticalAlign=top;html=1;outlineConnect=0;" vertex="1" parent="1">
          <mxGeometry x="20" y="210" width="30" height="60" as="geometry" />
        </mxCell>
        <mxCell id="D4OleUSTHo1VSGi5dYCB-9" value="" style="endArrow=none;html=1;rounded=0;" edge="1" parent="1" source="D4OleUSTHo1VSGi5dYCB-2" target="D4OleUSTHo1VSGi5dYCB-5">
          <mxGeometry width="50" height="50" relative="1" as="geometry">
            <mxPoint x="100" y="420" as="sourcePoint" />
            <mxPoint x="150" y="370" as="targetPoint" />
          </mxGeometry>
        </mxCell>
        <mxCell id="D4OleUSTHo1VSGi5dYCB-14" value="" style="endArrow=none;html=1;rounded=0;" edge="1" parent="1" source="D4OleUSTHo1VSGi5dYCB-2" target="D4OleUSTHo1VSGi5dYCB-12">
          <mxGeometry width="50" height="50" relative="1" as="geometry">
            <mxPoint x="60" y="243" as="sourcePoint" />
            <mxPoint x="309" y="129" as="targetPoint" />
          </mxGeometry>
        </mxCell>
        <mxCell id="D4OleUSTHo1VSGi5dYCB-16" value="" style="endArrow=none;html=1;rounded=0;" edge="1" parent="1" source="D4OleUSTHo1VSGi5dYCB-2" target="D4OleUSTHo1VSGi5dYCB-13">
          <mxGeometry width="50" height="50" relative="1" as="geometry">
            <mxPoint x="60" y="256" as="sourcePoint" />
            <mxPoint x="307" y="362" as="targetPoint" />
          </mxGeometry>
        </mxCell>
        <mxCell id="D4OleUSTHo1VSGi5dYCB-19" value="" style="endArrow=none;html=1;rounded=0;" edge="1" parent="1" source="D4OleUSTHo1VSGi5dYCB-2" target="D4OleUSTHo1VSGi5dYCB-11">
          <mxGeometry width="50" height="50" relative="1" as="geometry">
            <mxPoint x="60" y="255" as="sourcePoint" />
            <mxPoint x="463" y="400" as="targetPoint" />
          </mxGeometry>
        </mxCell>
        <mxCell id="D4OleUSTHo1VSGi5dYCB-28" value="" style="endArrow=none;html=1;rounded=0;" edge="1" parent="1" source="D4OleUSTHo1VSGi5dYCB-2" target="D4OleUSTHo1VSGi5dYCB-26">
          <mxGeometry width="50" height="50" relative="1" as="geometry">
            <mxPoint x="60" y="248" as="sourcePoint" />
            <mxPoint x="372" y="213" as="targetPoint" />
          </mxGeometry>
        </mxCell>
        <mxCell id="D4OleUSTHo1VSGi5dYCB-30" value="" style="endArrow=none;html=1;rounded=0;" edge="1" parent="1" source="D4OleUSTHo1VSGi5dYCB-2" target="D4OleUSTHo1VSGi5dYCB-29">
          <mxGeometry width="50" height="50" relative="1" as="geometry">
            <mxPoint x="60" y="261" as="sourcePoint" />
            <mxPoint x="472" y="576" as="targetPoint" />
          </mxGeometry>
        </mxCell>
        <mxCell id="D4OleUSTHo1VSGi5dYCB-32" value="" style="endArrow=none;html=1;rounded=0;" edge="1" parent="1" source="D4OleUSTHo1VSGi5dYCB-2" target="D4OleUSTHo1VSGi5dYCB-31">
          <mxGeometry width="50" height="50" relative="1" as="geometry">
            <mxPoint x="60" y="265" as="sourcePoint" />
            <mxPoint x="469" y="684" as="targetPoint" />
          </mxGeometry>
        </mxCell>
        <mxCell id="D4OleUSTHo1VSGi5dYCB-37" value="" style="endArrow=none;html=1;rounded=0;" edge="1" parent="1" source="D4OleUSTHo1VSGi5dYCB-2" target="D4OleUSTHo1VSGi5dYCB-36">
          <mxGeometry width="50" height="50" relative="1" as="geometry">
            <mxPoint x="60" y="257" as="sourcePoint" />
            <mxPoint x="567" y="477" as="targetPoint" />
          </mxGeometry>
        </mxCell>
        <mxCell id="D4OleUSTHo1VSGi5dYCB-40" value="" style="endArrow=none;html=1;rounded=0;" edge="1" parent="1" source="D4OleUSTHo1VSGi5dYCB-2" target="D4OleUSTHo1VSGi5dYCB-39">
          <mxGeometry width="50" height="50" relative="1" as="geometry">
            <mxPoint x="60" y="280" as="sourcePoint" />
            <mxPoint x="303" y="761" as="targetPoint" />
          </mxGeometry>
        </mxCell>
        <mxCell id="D4OleUSTHo1VSGi5dYCB-44" value="" style="endArrow=none;html=1;rounded=0;" edge="1" parent="1" source="D4OleUSTHo1VSGi5dYCB-2" target="D4OleUSTHo1VSGi5dYCB-43">
          <mxGeometry width="50" height="50" relative="1" as="geometry">
            <mxPoint x="60" y="260" as="sourcePoint" />
            <mxPoint x="322" y="437" as="targetPoint" />
          </mxGeometry>
        </mxCell>
        <mxCell id="D4OleUSTHo1VSGi5dYCB-47" value="" style="endArrow=none;html=1;rounded=0;" edge="1" parent="1" source="D4OleUSTHo1VSGi5dYCB-2" target="D4OleUSTHo1VSGi5dYCB-46">
          <mxGeometry width="50" height="50" relative="1" as="geometry">
            <mxPoint x="60" y="257" as="sourcePoint" />
            <mxPoint x="588" y="492" as="targetPoint" />
          </mxGeometry>
        </mxCell>
        <mxCell id="D4OleUSTHo1VSGi5dYCB-49" value="" style="endArrow=none;html=1;rounded=0;" edge="1" parent="1" source="D4OleUSTHo1VSGi5dYCB-2" target="D4OleUSTHo1VSGi5dYCB-26">
          <mxGeometry width="50" height="50" relative="1" as="geometry">
            <mxPoint x="50" y="243" as="sourcePoint" />
            <mxPoint x="715" y="382" as="targetPoint" />
          </mxGeometry>
        </mxCell>
        <mxCell id="D4OleUSTHo1VSGi5dYCB-52" value="" style="endArrow=none;html=1;rounded=0;" edge="1" parent="1" source="D4OleUSTHo1VSGi5dYCB-2" target="D4OleUSTHo1VSGi5dYCB-48">
          <mxGeometry width="50" height="50" relative="1" as="geometry">
            <mxPoint x="60" y="259" as="sourcePoint" />
            <mxPoint x="544" y="539" as="targetPoint" />
          </mxGeometry>
        </mxCell>
        <mxCell id="D4OleUSTHo1VSGi5dYCB-53" value="" style="endArrow=none;html=1;rounded=0;" edge="1" parent="1" source="D4OleUSTHo1VSGi5dYCB-2" target="D4OleUSTHo1VSGi5dYCB-50">
          <mxGeometry width="50" height="50" relative="1" as="geometry">
            <mxPoint x="60" y="260" as="sourcePoint" />
            <mxPoint x="569" y="617" as="targetPoint" />
          </mxGeometry>
        </mxCell>
        <mxCell id="D4OleUSTHo1VSGi5dYCB-54" value="" style="endArrow=none;html=1;rounded=0;" edge="1" parent="1" source="D4OleUSTHo1VSGi5dYCB-2" target="D4OleUSTHo1VSGi5dYCB-51">
          <mxGeometry width="50" height="50" relative="1" as="geometry">
            <mxPoint x="60" y="260" as="sourcePoint" />
            <mxPoint x="698" y="687" as="targetPoint" />
          </mxGeometry>
        </mxCell>
        <mxCell id="D4OleUSTHo1VSGi5dYCB-58" value="" style="endArrow=none;html=1;rounded=0;" edge="1" parent="1" source="D4OleUSTHo1VSGi5dYCB-2" target="D4OleUSTHo1VSGi5dYCB-10">
          <mxGeometry width="50" height="50" relative="1" as="geometry">
            <mxPoint x="60" y="253" as="sourcePoint" />
            <mxPoint x="607" y="380" as="targetPoint" />
          </mxGeometry>
        </mxCell>
        <mxCell id="D4OleUSTHo1VSGi5dYCB-59" value="" style="endArrow=none;html=1;rounded=0;" edge="1" parent="1" source="D4OleUSTHo1VSGi5dYCB-2" target="D4OleUSTHo1VSGi5dYCB-43">
          <mxGeometry width="50" height="50" relative="1" as="geometry">
            <mxPoint x="50" y="246" as="sourcePoint" />
            <mxPoint x="600" y="463" as="targetPoint" />
          </mxGeometry>
        </mxCell>
        <mxCell id="D4OleUSTHo1VSGi5dYCB-63" value="" style="endArrow=none;html=1;rounded=0;" edge="1" parent="1" source="D4OleUSTHo1VSGi5dYCB-2" target="D4OleUSTHo1VSGi5dYCB-62">
          <mxGeometry width="50" height="50" relative="1" as="geometry">
            <mxPoint x="60" y="253" as="sourcePoint" />
            <mxPoint x="764" y="374" as="targetPoint" />
          </mxGeometry>
        </mxCell>
        <mxCell id="D4OleUSTHo1VSGi5dYCB-68" value="" style="endArrow=none;html=1;rounded=0;" edge="1" parent="1" source="D4OleUSTHo1VSGi5dYCB-2" target="D4OleUSTHo1VSGi5dYCB-67">
          <mxGeometry width="50" height="50" relative="1" as="geometry">
            <mxPoint x="53" y="280" as="sourcePoint" />
            <mxPoint x="261" y="1090" as="targetPoint" />
          </mxGeometry>
        </mxCell>
        <mxCell id="D4OleUSTHo1VSGi5dYCB-70" value="" style="endArrow=none;html=1;rounded=0;" edge="1" parent="1" source="D4OleUSTHo1VSGi5dYCB-2" target="D4OleUSTHo1VSGi5dYCB-69">
          <mxGeometry width="50" height="50" relative="1" as="geometry">
            <mxPoint x="60" y="239" as="sourcePoint" />
            <mxPoint x="231" y="114" as="targetPoint" />
          </mxGeometry>
        </mxCell>
        <mxCell id="D4OleUSTHo1VSGi5dYCB-73" value="" style="endArrow=none;html=1;rounded=0;" edge="1" parent="1" source="D4OleUSTHo1VSGi5dYCB-2" target="D4OleUSTHo1VSGi5dYCB-71">
          <mxGeometry width="50" height="50" relative="1" as="geometry">
            <mxPoint x="60" y="249" as="sourcePoint" />
            <mxPoint x="570" y="228" as="targetPoint" />
          </mxGeometry>
        </mxCell>
        <mxCell id="D4OleUSTHo1VSGi5dYCB-76" value="" style="endArrow=none;html=1;rounded=0;" edge="1" parent="1" source="D4OleUSTHo1VSGi5dYCB-2" target="D4OleUSTHo1VSGi5dYCB-74">
          <mxGeometry width="50" height="50" relative="1" as="geometry">
            <mxPoint x="60" y="253" as="sourcePoint" />
            <mxPoint x="646" y="381" as="targetPoint" />
          </mxGeometry>
        </mxCell>
      </root>
    </mxGraphModel>
  </diagram>
</mxfile>
